<svg xmlns="http://www.w3.org/2000/svg" xml:space="preserve" x="0px" y="0px" viewBox="0 0 331.5 101.6"><g fill="#1E1E1E"><path d="M123.9 62.5h42.4v-8.4h-33.9V28.5h33.9v-8.4h-42.4zM289.1 20.1h42.4v8.4h-42.4zM289.1 37.1h42.4v8.4h-42.4zM289.1 54.1h42.4v8.4h-42.4zM221.5 20.1h-8.4v34h-25.6v-34h-8.4v42.4h42.4zM276.6 62.5V37.1h-8.4V20.2h-34v42.4h42.4zm-34-34h17.1V37h-17.1v-8.5zm0 25.6v-8.5h25.5v8.5h-25.5zM146.6 78.1l-5.1-7.3h-.7v8.8h.7v-7.2l5.1 7.2h.7v-8.8h-.7zM275 77.1l-3.1-6.3h-.7v8.8h.7v-6.7l2.7 5.4h.8l2.6-5.4v6.7h.8v-8.8h-.8zM258.9 78.1l-5.1-7.3h-.7v8.8h.7v-7.2l5.1 7.2h.7v-8.8h-.7zM312.8 78.1l-5-7.3h-.7v8.8h.7v-7.2l5 7.2h.8v-8.8h-.8zM124.9 70.8v8.8h5.6v-.7h-4.9v-3.3h4.3v-.7h-4.3v-3.4h4.9v-.7zM180.4 79.6v-.7h-4.9v-3.3h4.3v-.7h-4.3v-3.4h4.9v-.7h-5.6v8.8zM296 79.6v-.7h-4.8v-3.3h4.3v-.7h-4.3v-3.4h4.8v-.7h-5.5v8.8zM158 70.8v.7h2.7v8.1h.7v-8.1h2.7v-.7zM207.6 70.8v.7h2.7v8.1h.7v-8.1h2.7v-.7zM324.2 70.8v.7h2.7v8.1h.7v-8.1h2.7v-.7zM240.6 70.8h.7v8.8h-.7zM225.9 70.8l-3.3 8.8h.7l.8-2h4.4l.8 2h.7l-3.3-8.8h-.8zm2.3 6.1h-3.9l1.9-5.1 2 5.1zM191.4 79.6h.7v-3.9h2.5l2.1 3.9h.7l-2.1-3.9c1.2-.2 2.1-1.2 2.1-2.5 0-1.4-1.1-2.5-2.5-2.5h-3.6l.1 8.9zm3.5-4.5h-2.8v-3.5h2.8c1 0 1.8.8 1.8 1.8 0 .9-.8 1.7-1.8 1.7z"/></g><radialGradient id="a" cx="5.5338" cy="-1370.9344" r="54.3796" gradientTransform="matrix(.8923 0 0 .1028 44.36 236.968)" gradientUnits="userSpaceOnUse"><stop offset="0" style="stop-color:#00000f"/><stop offset="1" style="stop-color:#00000f;stop-opacity:0"/></radialGradient><ellipse cx="49.3" cy="96" fill="url(#a)" rx="48.5" ry="5.6"/><path fill="#127DC3" d="M84 0 48.8 4.6l3.3 9.7z"/><linearGradient id="b" x1="72.0975" x2="85.3212" y1="53.7193" y2="0.6819" gradientUnits="userSpaceOnUse"><stop offset="0" style="stop-color:#1d7fc6"/><stop offset="1" style="stop-color:#07539e"/></linearGradient><path fill="url(#b)" d="m64.4 51.5 35.7 9.6L84 0 52.1 14.3z"/><linearGradient id="c" x1="9.8834" x2="29.8257" y1="50.6194" y2="46.3806" gradientUnits="userSpaceOnUse"><stop offset="0" style="stop-color:#0c9ec5"/><stop offset="0.9" style="stop-color:#096eb6"/></linearGradient><path fill="url(#c)" d="M22.4 27.6 0 24.9l22 51 15.8-9.1z"/><linearGradient id="d" x1="3.1485" x2="51.0627" y1="29.8023" y2="8.4696" gradientUnits="userSpaceOnUse"><stop offset="0.2" style="stop-color:#07539e"/><stop offset="1" style="stop-color:#25a5e2"/></linearGradient><path fill="url(#d)" d="m52.1 14.3-3.3-9.7L0 24.9l22.4 2.7z"/><linearGradient id="e" x1="25.9784" x2="61.3705" y1="44.559" y2="37.0362" gradientUnits="userSpaceOnUse"><stop offset="0" style="stop-color:#42bceb"/><stop offset="0.9" style="stop-color:#1d7fc6"/></linearGradient><path fill="url(#e)" d="m22.4 27.6 15.4 39.2 26.6-15.3-12.3-37.2z"/><linearGradient id="f" x1="24.0408" x2="46.079" y1="85.5256" y2="80.8412" gradientUnits="userSpaceOnUse"><stop offset="0" style="stop-color:#29a2d7"/><stop offset="0.9" style="stop-color:#1774ad"/></linearGradient><path fill="url(#f)" d="M22 75.9 49.3 96 37.8 66.8z"/><linearGradient id="g" x1="43.3235" x2="98.6744" y1="79.7492" y2="55.1054" gradientUnits="userSpaceOnUse"><stop offset="0" style="stop-color:#2a96d6"/><stop offset="0.9" style="stop-color:#225596"/></linearGradient><path fill="url(#g)" d="M64.4 51.5 37.8 66.8 49.3 96l50.8-34.9z"/></svg>